<?xml version="1.0" encoding="utf-8"?>
<!-- Generator: Adobe Illustrator 27.0.0, SVG Export Plug-In . SVG Version: 6.00 Build 0)  -->
<svg version="1.1" xmlns="http://www.w3.org/2000/svg" xmlns:xlink="http://www.w3.org/1999/xlink" x="0px" y="0px"
	 viewBox="0 0 500 500" style="enable-background:new 0 0 500 500;" xml:space="preserve">
<style type="text/css">
	.st0{fill:#F4D7D1;}
	.st1{fill-rule:evenodd;clip-rule:evenodd;fill:#EFC4BC;}
	.st2{fill-rule:evenodd;clip-rule:evenodd;fill:#CA5232;}
	.st3{fill-rule:evenodd;clip-rule:evenodd;fill:#F4D7D1;}
	
		.st4{clip-path:url(#SVGID_00000121966138762369037560000007873781952488898480_);fill-rule:evenodd;clip-rule:evenodd;fill:#FFFFFF;}
	.st5{fill-rule:evenodd;clip-rule:evenodd;fill:#FFFFFF;}
	.st6{fill-rule:evenodd;clip-rule:evenodd;fill:#474792;}
	.st7{fill-rule:evenodd;clip-rule:evenodd;fill:#EAF5FF;}
	.st8{fill-rule:evenodd;clip-rule:evenodd;fill:#BACCDA;}
	.st9{fill-rule:evenodd;clip-rule:evenodd;fill:#D6D6D6;}
	.st10{fill-rule:evenodd;clip-rule:evenodd;fill:#3D3B5B;}
	
		.st11{clip-path:url(#SVGID_00000014603327058514794060000012589050700464025502_);fill-rule:evenodd;clip-rule:evenodd;fill:#3357AD;}
	.st12{fill-rule:evenodd;clip-rule:evenodd;fill:#E1A03D;}
	.st13{fill-rule:evenodd;clip-rule:evenodd;fill:#1B1B58;}
	.st14{fill-rule:evenodd;clip-rule:evenodd;fill:#D76D51;}
	.st15{fill-rule:evenodd;clip-rule:evenodd;fill:#E3825F;}
	.st16{fill-rule:evenodd;clip-rule:evenodd;fill:#2A4890;}
	.st17{fill-rule:evenodd;clip-rule:evenodd;fill:#3357AD;}
	
		.st18{clip-path:url(#SVGID_00000114033937865298252770000010723001199953781927_);fill-rule:evenodd;clip-rule:evenodd;fill:#6287D4;}
	.st19{fill-rule:evenodd;clip-rule:evenodd;fill:#DC8139;}
	
		.st20{clip-path:url(#SVGID_00000182517495555928408450000010209882416523026621_);fill-rule:evenodd;clip-rule:evenodd;fill:#B35918;}
	
		.st21{clip-path:url(#SVGID_00000182517495555928408450000010209882416523026621_);fill-rule:evenodd;clip-rule:evenodd;fill:#FFFFFF;}
	
		.st22{clip-path:url(#SVGID_00000035505851681648639500000015073840804246989220_);fill-rule:evenodd;clip-rule:evenodd;fill:#B35918;}
	
		.st23{clip-path:url(#SVGID_00000035505851681648639500000015073840804246989220_);fill-rule:evenodd;clip-rule:evenodd;fill:#FFFFFF;}
	.st24{fill-rule:evenodd;clip-rule:evenodd;fill:#B35918;}
	.st25{fill-rule:evenodd;clip-rule:evenodd;fill:#CD7251;}
	
		.st26{clip-path:url(#SVGID_00000140704142453777745890000017969540541332316577_);fill-rule:evenodd;clip-rule:evenodd;fill:#242424;}
	
		.st27{clip-path:url(#SVGID_00000012441967836855429240000013844913784386464931_);fill-rule:evenodd;clip-rule:evenodd;fill:#FFFFFF;}
	.st28{fill-rule:evenodd;clip-rule:evenodd;fill:#242424;}
	.st29{fill-rule:evenodd;clip-rule:evenodd;fill:#B04428;}
	.st30{fill-rule:evenodd;clip-rule:evenodd;fill:#253D7C;}
	
		.st31{clip-path:url(#SVGID_00000089565446408584911190000013709948670849001404_);fill-rule:evenodd;clip-rule:evenodd;fill:#5E9CE9;}
	
		.st32{clip-path:url(#SVGID_00000089565446408584911190000013709948670849001404_);fill-rule:evenodd;clip-rule:evenodd;fill:#242424;}
	.st33{fill-rule:evenodd;clip-rule:evenodd;fill:#D86D51;}
</style>
<g id="BACKGROUND">
	<rect class="st0" width="500" height="500"/>
</g>
<g id="OBJECTS">
	<ellipse class="st1" cx="246.07" cy="455.03" rx="175.97" ry="11.67"/>
	<path class="st1" d="M101.32,185.91c5.93-15.35,17.3-72.34,21.03-83.03c11.09-31.8,50-61.65,85.27-61.73
		c28.16-0.06,48.8,18.42,74.41,25.89c26.69,7.78,55.1,6.47,81.73,15.55c47.14,16.08,67.51,53.4,66.71,100.53
		c-0.51,29.74-10.14,59.89-22.28,85.8c-6.3,13.44-11.35,28.76-11.64,43.5c-0.26,13.27,3.93,26.77-0.44,39.81
		c-18.24,54.41-59.73,38.62-98.26,25.14c-16.05-5.61-77.98-2.54-94.77-5.78c-56.96-10.99-62.13-28.93-88.15-64.56
		C75.19,252.68,80.38,240.13,101.32,185.91z"/>
	<g>
		<rect x="223.58" y="82" class="st2" width="156.9" height="86.24"/>
		<rect x="229.61" y="87.93" class="st3" width="144.8" height="73.82"/>
		<g>
			<defs>
				<rect id="SVGID_1_" x="229.61" y="87.93" width="144.8" height="73.82"/>
			</defs>
			<clipPath id="SVGID_00000060730034369878434220000014353750262859195813_">
				<use xlink:href="#SVGID_1_"  style="overflow:visible;"/>
			</clipPath>
			
				<path style="clip-path:url(#SVGID_00000060730034369878434220000014353750262859195813_);fill-rule:evenodd;clip-rule:evenodd;fill:#FFFFFF;" d="
				M276.61,55.74l129.35,113.6l-12.54,14.28L264.07,70.02L276.61,55.74z M259.87,73.71l129.35,113.6l-5.82,6.63L254.05,80.34
				L259.87,73.71z"/>
		</g>
		<rect x="298.6" y="86.36" class="st2" width="6.12" height="77.64"/>
	</g>
	<g>
		<g>
			<path class="st5" d="M224.82,181.65c2.26-0.83,4.39-1.92,6.31-3.25c1.53-1.06,2.92-2.26,4.15-3.58c2.14-2.3,3.78-4.95,4.78-7.78
				c0.78-2.21,1.18-4.52,1.18-6.84c0-6.67,0-13.34,0-20.01c0-2.41-0.43-4.82-1.28-7.11c-0.64-1.73-1.51-3.39-2.6-4.94
				c-1.13-1.61-2.48-3.1-4.02-4.43c-1.52-1.31-3.22-2.47-5.06-3.43c-1.76-0.93-3.65-1.67-5.61-2.22c-2.64-0.74-5.41-1.11-8.19-1.11
				c-9.12,0-18.25,0-27.37,0c-1.86,0-3.73,0.17-5.55,0.5c-2.72,0.5-5.35,1.37-7.76,2.58c-1.93,0.96-3.72,2.14-5.32,3.49
				c-1.6,1.34-3,2.86-4.17,4.51c-1.12,1.58-2.03,3.28-2.68,5.06c-0.85,2.29-1.28,4.7-1.28,7.11c0,6.67,0,13.34,0,20.01
				c0,2.34,0.4,4.68,1.2,6.91c1.05,2.94,2.79,5.68,5.06,8.03c1.67,1.73,3.63,3.24,5.8,4.48c2.04,1.17,4.25,2.09,6.58,2.73
				c2.62,0.72,5.36,1.09,8.11,1.09c9.12,0,18.25,0,27.37,0c0.86,0,1.71-0.04,2.56-0.11h0l6.87,12.31l0.87-13.99L224.82,181.65z"/>
			<rect x="174.24" y="131.08" class="st6" width="53.12" height="37.3"/>
			<rect x="175.84" y="134.63" class="st7" width="49.92" height="32.29"/>
			<path class="st8" d="M179.48,143.28h43.42v-1.04h-43.42V143.28z M179.48,151.29h43.42v-1.04h-43.42V151.29z M179.48,159.3h43.42
				v-1.04h-43.42V159.3z"/>
			<rect x="223.06" y="131.5" class="st2" width="2.69" height="2.8"/>
			<rect x="219.84" y="131.5" class="st9" width="2.69" height="2.8"/>
			<polygon class="st5" points="224.41,132.63 224.95,132.09 225.22,132.37 224.69,132.9 225.22,133.44 224.95,133.72 
				224.41,133.18 223.87,133.72 223.6,133.44 224.13,132.9 223.6,132.37 223.87,132.09 			"/>
		</g>
		<g>
			<path class="st10" d="M334.34,266.07c0.59,0.55,1.38,0.89,2.25,0.89c1.81,0,3.28-1.47,3.28-3.28c0-1.81-1.47-3.28-3.28-3.28
				c-0.87,0-1.66,0.34-2.25,0.89V266.07z M334.34,257.51c0.7-0.26,1.46-0.4,2.25-0.4c3.62,0,6.57,2.94,6.57,6.57
				c0,3.62-2.94,6.57-6.57,6.57c-0.79,0-1.55-0.14-2.25-0.4v8.62h-19.99v-27.48h19.99V257.51z"/>
			<g>
				<defs>
					<path id="SVGID_00000129910573329298903500000014283238896758591105_" d="M334.34,266.07c0.59,0.55,1.38,0.89,2.25,0.89
						c1.81,0,3.28-1.47,3.28-3.28c0-1.81-1.47-3.28-3.28-3.28c-0.87,0-1.66,0.34-2.25,0.89V266.07z M334.34,257.51
						c0.7-0.26,1.46-0.4,2.25-0.4c3.62,0,6.57,2.94,6.57,6.57c0,3.62-2.94,6.57-6.57,6.57c-0.79,0-1.55-0.14-2.25-0.4v8.62h-19.99
						v-27.48h19.99V257.51z"/>
				</defs>
				<clipPath id="SVGID_00000127748628919214700950000001531519526466071479_">
					<use xlink:href="#SVGID_00000129910573329298903500000014283238896758591105_"  style="overflow:visible;"/>
				</clipPath>
				
					<path style="clip-path:url(#SVGID_00000127748628919214700950000001531519526466071479_);fill-rule:evenodd;clip-rule:evenodd;fill:#3357AD;" d="
					M313.28,257.27c3.46-0.24,6.91-0.46,10.38-0.59c1.84-0.07,3.7-0.11,5.54-0.26c1.57-0.13,3.1-0.31,4.68-0.32
					c0.77-0.01,1.94,0.23,2.68,0.01c0.74-0.22,0.68-1.58,0.1-1.9c-1.02-0.55-2.57-0.45-3.7-0.48c-0.99-0.02-1.99,0.01-2.99,0.01
					c-7.02,0.01-14.09,0.3-21.1,0.75L313.28,257.27z M312.52,276.56c4.02-0.5,8.13-0.09,12.17-0.24c2.1-0.08,4.19-0.1,6.29-0.21
					c1.75-0.09,3.49,0.06,5.24,0.09c0.68,0.01,1.72,0.2,2.4-0.02c0.72-0.24,1.41-2.65,0.63-3.18c-0.81-0.55-2.05-0.46-2.98-0.48
					c-1.26-0.02-2.51,0-3.76-0.07c-5.35-0.26-10.69-0.27-16.03-0.39c-2.2-0.05-4.38-0.36-6.59-0.24L312.52,276.56z"/>
			</g>
			<path class="st5" d="M319.9,238.15c0.15-0.82-0.22-1.68-0.53-2.41c-0.53-1.29-1.26-2.6-1.31-4.03c-0.04-1.01,0.46-1.96,0.92-2.83
				c0.16-0.3,0.34-0.58,0.55-0.84c0.08-0.1,0.15-0.19,0.22-0.29c0.03-0.04,0.08-0.17,0.09-0.12c0.04,0.48-0.13,1.04-0.18,1.52
				c-0.11,0.88-0.09,1.77,0.05,2.64c0.24,1.48,1.34,2.84,1.18,4.39c-0.06,0.58-0.29,1.1-0.54,1.62L319.9,238.15z M328.73,239.52
				c1.02-2.7-0.79-5.14-0.4-7.85c0.13-0.88,0.51-1.84,0.98-2.59c0.16-0.25,0.36-0.47,0.53-0.71c0.06-0.08,0.11-0.17,0.16-0.25
				c0.03-0.05,0.09-0.21,0.1-0.15c0.13,1.05-0.02,2.17,0.05,3.24c0.08,1.1,0.4,2.16,0.42,3.26c0.03,1.52-0.53,3.06-1.34,4.33
				L328.73,239.52z M324.18,242.93c1-1.41,0.74-3.39,0.24-4.93c-0.9-2.76-3.07-5.42-2.59-8.49c0.31-1.99,1.51-3.87,2.38-5.66
				c0.3-0.61,0.5-1.25,0.7-1.9c0.06-0.19,0.11-0.38,0.16-0.57c0.03-0.09,0.1-0.35,0.08-0.26c-0.42,1.62-0.83,3.23-1.16,4.87
				c-0.27,1.34-0.63,2.57-0.29,3.95c0.69,2.86,3.38,5.46,2.94,8.6c-0.12,0.87-0.5,1.69-0.93,2.45
				C325.3,241.72,324.74,242.34,324.18,242.93c-0.03,0.04-0.05,0.07-0.08,0.11l0.05-0.08C324.16,242.95,324.17,242.94,324.18,242.93
				z"/>
		</g>
		<g>
			<polygon class="st12" points="368.53,254.31 366.8,254.31 366.8,247.45 401.86,247.45 401.86,254.31 399.94,254.31 
				393.91,278.47 374.85,278.47 			"/>
			<path class="st2" d="M382.63,243.35c-0.39-1.68-0.62-3.4-0.77-5.05c-0.4-4.33-0.56-8.87,0.08-13.18
				c0.44-2.98,1.28-5.86,2.13-8.74c0.74-2.52,1.65-4.99,2.71-7.4c0.23-0.53,0.45-1.07,0.64-1.61c0.07-0.18,0.02-0.49,0.2-0.52
				c0.04-0.01,0.17,0.48,0.18,0.52c0.15,0.57,0.27,1.15,0.42,1.72c0.73,2.81,1.41,5.66,1.85,8.53c1.27,8.34,0.85,16.75-1.96,24.74
				c-0.34,0.96-0.69,1.92-1.07,2.86c0.81-1,1.77-1.9,2.37-2.59c4.09-4.71,8.4-8.91,11.62-14.32c0.84-1.4,1.58-2.86,2.34-4.31
				c0.1-0.2,0.57-1.46,0.92-1.45c0.57,0.03,0.73,1.46,0.79,1.81c0.34,2.05,0.07,4-0.54,5.98c-0.53,1.73-1.19,3.48-2.06,5.07
				c-1.42,2.62-3.71,4.87-5.98,6.76c-2.15,1.79-4.53,3.31-6.96,4.74c0.47,0.07,0.9,0.17,1.26,0.26c1.5,0.37,3.01,0.86,4.36,1.62
				c2.14,1.2,4.09,3.09,5.76,4.87c0.64,0.69,1.2,1.42,1.71,2.2c0.09,0.14,0.49,0.57,0.49,0.75c0,0.17-1.05,0.18-1.13,0.18
				c-1.21,0.01-2.41-0.04-3.62-0.05c-1.2-0.01-2.39-0.18-3.56-0.48c-1.79-0.47-3.62-1.23-5.18-2.23c-1.76-1.12-2.92-2.67-4.07-4.28
				c-0.32,0.14-0.64,0.28-0.97,0.41c-3.87,1.6-8.04,1.65-12.16,1.11c-1.42-0.18-3.02-0.32-4.34-0.9c-0.23-0.1-0.96-0.42-0.94-0.77
				c0-0.05,0.79-0.21,0.85-0.22c1.05-0.3,1.99-0.89,2.98-1.34c2.34-1.05,4.88-1.53,7.38-1.42c-5.94-3.39-10.66-9.73-12.35-16.29
				c-0.74-2.85-0.84-5.96-0.4-8.88c0.12-0.77,0.27-1.6,0.68-2.28c0.1-0.17,0.47-0.65,0.75-0.49c0.4,0.22,0.55,1.34,0.66,1.71
				c0.43,1.48,0.77,2.98,1.32,4.42c1.57,4.16,4.05,8.12,6.99,11.44C378.17,238.72,380.63,240.79,382.63,243.35z"/>
			<path class="st12" d="M385.01,243.01c0.6-1.36,0.97-2.83,1.2-4.35c0.34-2.23,0.37-4.55,0.43-6.71c0.02-1.45,0.04-2.91,0.03-4.36
				c-0.02-2.18-0.1-4.36-0.22-6.54c-0.01-0.12-0.1-0.21-0.23-0.21c-0.12,0-0.21,0.1-0.21,0.22l-0.08,10.87
				c0,2.14,0.02,4.43-0.25,6.65c-0.18,1.48-0.49,2.92-1.04,4.27c-0.04,0.1,0.01,0.21,0.1,0.26
				C384.86,243.16,384.97,243.11,385.01,243.01z M380.27,245.31l-5.14-5.09c-1.05-1.21-1.93-2.48-2.75-3.79
				c-0.82-1.32-1.59-2.67-2.31-4.11c-0.07-0.15-0.25-0.21-0.4-0.14c-0.15,0.07-0.22,0.25-0.14,0.4c0.68,1.48,1.37,2.91,2.19,4.26
				c0.83,1.35,1.79,2.62,2.9,3.84l5.38,4.9c0.07,0.08,0.2,0.08,0.28,0.01C380.34,245.51,380.34,245.39,380.27,245.31z
				 M389.18,245.72c0.71-0.42,1.38-0.92,2.01-1.46c0.93-0.8,1.79-1.69,2.67-2.53c1.31-1.3,2.58-2.55,3.69-3.94
				c0.74-0.93,1.41-1.92,1.98-3.03c0.06-0.11,0.01-0.24-0.09-0.3c-0.11-0.06-0.24-0.02-0.3,0.09c-0.58,1.06-1.27,2.01-2.01,2.89
				c-1.13,1.34-2.42,2.54-3.74,3.8c-0.85,0.84-1.7,1.74-2.6,2.56c-0.59,0.55-1.2,1.07-1.86,1.51c-0.11,0.07-0.15,0.22-0.08,0.33
				C388.92,245.75,389.07,245.79,389.18,245.72z M383.4,247.45c-1.1,0.37-2.26,0.57-3.43,0.72c-1.76,0.22-3.56,0.3-5.29,0.32
				c-0.16,0-0.28,0.13-0.28,0.29c0,0.16,0.13,0.28,0.29,0.28c1.46-0.01,2.98,0,4.48-0.17c1.51-0.17,2.99-0.52,4.38-1.08
				c0.1-0.04,0.15-0.15,0.11-0.25C383.61,247.46,383.5,247.41,383.4,247.45z M388.01,250.25l2.89,2.37c0.83,0.55,1.69,1.03,2.6,1.37
				c0.91,0.34,1.86,0.54,2.86,0.61c0.14,0.02,0.27-0.07,0.29-0.21c0.02-0.14-0.08-0.27-0.21-0.29c-0.73-0.16-1.41-0.42-2.08-0.71
				c-0.99-0.44-1.93-0.99-2.82-1.67c-0.65-0.38-1.27-0.81-1.94-1.18c-0.46-0.26-0.93-0.48-1.43-0.64c-0.1-0.04-0.21,0-0.26,0.1
				C387.87,250.1,387.91,250.21,388.01,250.25z"/>
		</g>
		<polygon class="st12" points="274.73,273.64 297.12,215.94 301.99,217.83 278.3,278.88 208.09,278.5 208.12,273.28 		"/>
		<g>
			<path class="st5" d="M275.89,208.07c-3.71,0.11-7.5-0.73-11-2.64c-10.45-5.72-14.29-18.84-8.57-29.29
				c5.72-10.45,18.84-14.29,29.29-8.57c10.45,5.72,14.29,18.84,8.57,29.29c-2.76,5.04-7.23,8.54-12.3,10.17l-1.39,12.03
				L275.89,208.07z"/>
			<path class="st12" d="M275.49,173.39c6.94,0,12.58,5.64,12.58,12.58c0,6.94-5.64,12.58-12.58,12.58
				c-6.94,0-12.58-5.64-12.58-12.58C262.91,179.03,268.55,173.39,275.49,173.39z"/>
			<path class="st13" d="M278.32,184.6h-1.23c0-1.67,1.36-3.03,3.03-3.03c1.67,0,3.03,1.36,3.03,3.03h-1.23c0-0.99-0.8-1.8-1.8-1.8
				C279.12,182.8,278.32,183.61,278.32,184.6z M269.07,184.6h-1.23c0-1.67,1.36-3.03,3.03-3.03c1.67,0,3.03,1.36,3.03,3.03h-1.23
				c0-0.99-0.8-1.8-1.79-1.8C269.87,182.8,269.07,183.61,269.07,184.6z M273.55,188.05h-1.23c0,1.67,1.36,3.03,3.03,3.03
				c1.67,0,3.03-1.36,3.03-3.03h-1.23c0,0.99-0.8,1.79-1.8,1.79C274.36,189.85,273.55,189.04,273.55,188.05z"/>
			<path class="st14" d="M283.63,185.75c1.16,0,2.1,0.94,2.1,2.1c0,1.16-0.94,2.1-2.1,2.1c-1.16,0-2.1-0.94-2.1-2.1
				C281.52,186.69,282.47,185.75,283.63,185.75z M267.35,185.75c1.16,0,2.1,0.94,2.1,2.1c0,1.16-0.94,2.1-2.1,2.1
				c-1.16,0-2.1-0.94-2.1-2.1C265.25,186.69,266.19,185.75,267.35,185.75z"/>
		</g>
		<g>
			<polygon class="st5" points="232.8,245.88 196.49,245.88 196.49,202.93 255.41,202.93 255.41,245.88 241.48,245.88 241.12,259.1 
							"/>
			<path class="st9" d="M204.15,213.14h44.39v-1.51h-44.39V213.14z M204.15,221.29h44.39v-1.51h-44.39V221.29z M204.15,229.44h44.39
				v-1.51h-44.39V229.44z M204.15,237.59h44.39v-1.51h-44.39V237.59z"/>
		</g>
		<g>
			<g>
				<g>
					<path class="st15" d="M252.91,419.26c0.41,0.9,0.62,2.43,1.27,3.18c0.54,0.63,1.41,0.81,2.13,1.17c2.22,1.12,4.86,1.69,7.32,2
						c0.82,0.1,1.53,0.4,2.24,0.8c0.14,0.07,0.69,0.37,0.85,0.29c0.03-0.01-0.04-0.36-0.05-0.38c-0.07-0.35,0.17-0.16,0.06-0.5
						c-0.51-1.5-4.04-9.98-5.17-12.34c-0.6-1.25-5.95-3.86-7.6-3.78"/>
					<path class="st16" d="M215.5,317.57c0,0,29.93,54.12,46.42,96.73l-8.72,5.47c0,0-60.23-71.38-75.04-103.21"/>
					<path class="st17" d="M160.72,287.88c0,0,75.26,14.24,80.22,22.9c4.96,8.65-29.49,101.25-34.42,108.13
						c-1.56,2.18-10.99-6.63-10.99-6.63s2.9-57.59,15.77-82.14c0,0-54.88,0.14-76.67,0.23c0,0-24.41,0.4-27.58-28.09
						c0,0-0.43-6.65,3.04-15.26"/>
					<g>
						<defs>
							<path id="SVGID_00000183953407792336568030000015933066633705992362_" d="M160.72,287.88c0,0,75.26,14.24,80.22,22.9
								c4.96,8.65-29.49,101.25-34.42,108.13c-1.56,2.18-10.99-6.63-10.99-6.63s2.9-57.59,15.77-82.14c0,0-54.88,0.14-76.67,0.23
								c0,0-24.41,0.4-27.58-28.09c0,0-0.43-6.65,3.04-15.26"/>
						</defs>
						<clipPath id="SVGID_00000031193500412610349150000005851435637817662644_">
							<use xlink:href="#SVGID_00000183953407792336568030000015933066633705992362_"  style="overflow:visible;"/>
						</clipPath>
						
							<path style="clip-path:url(#SVGID_00000031193500412610349150000005851435637817662644_);fill-rule:evenodd;clip-rule:evenodd;fill:#6287D4;" d="
							M118.91,302.17c-0.06,0.07-0.1,0.1-0.14,0.18c-0.01,0.03-0.02,0.05-0.03,0.08c-0.04,0.22-0.04,0.44-0.06,0.66
							c-0.01,0.09,0.05,0.17,0.14,0.18c0.09,0.01,0.17-0.05,0.19-0.14c0.03-0.22,0.08-0.44,0.08-0.66c0-0.03,0-0.06-0.01-0.09
							c-0.02-0.09-0.06-0.13-0.1-0.21c0-0.02-0.01-0.04-0.03-0.04C118.93,302.14,118.92,302.15,118.91,302.17z M118.37,304.86
							c-0.03,0.04-0.05,0.07-0.07,0.11c-0.01,0.03-0.01,0.05-0.02,0.08c-0.04,0.27-0.08,0.53-0.15,0.79
							c-0.01,0.04,0.01,0.09,0.06,0.1c0.04,0.01,0.09-0.01,0.1-0.06c0.07-0.23,0.14-0.46,0.18-0.7c0.01-0.06,0.03-0.12,0.02-0.19
							c-0.01-0.05-0.03-0.08-0.05-0.13c0-0.02-0.01-0.04-0.03-0.04C118.39,304.83,118.38,304.84,118.37,304.86z M117.77,307.66
							c-0.08,0.01-0.01-0.02-0.08,0.01c-0.02,0.01-0.03,0.02-0.04,0.03c-0.12,0.19-0.12,0.42-0.2,0.63c-0.02,0.06,0,0.13,0.06,0.15
							c0.06,0.02,0.13,0,0.15-0.06c0.09-0.18,0.18-0.37,0.25-0.56c0.01-0.02,0.02-0.04,0.02-0.06c0-0.03,0-0.05-0.02-0.07
							c-0.05-0.07,0,0-0.07-0.05c0-0.02-0.01-0.04-0.03-0.04C117.8,307.63,117.78,307.64,117.77,307.66z M116.98,309.74
							c-0.05,0.03-0.08,0.04-0.13,0.08c-0.02,0.02-0.04,0.04-0.05,0.07c-0.15,0.24-0.26,0.5-0.39,0.74
							c-0.04,0.06-0.01,0.14,0.05,0.18c0.06,0.04,0.14,0.01,0.18-0.05c0.14-0.25,0.31-0.48,0.42-0.75c0.01-0.02,0.02-0.04,0.02-0.06
							c0.01-0.07-0.01-0.11-0.02-0.18c0.01-0.02,0-0.04-0.02-0.05C117.01,309.71,116.99,309.72,116.98,309.74z M115.7,311.92
							c-0.07,0.03-0.09-0.01-0.14,0.04c-0.21,0.19-0.3,0.48-0.48,0.7c-0.04,0.05-0.04,0.13,0.01,0.17c0.05,0.04,0.13,0.04,0.17-0.01
							c0.19-0.2,0.39-0.39,0.52-0.64c0.02-0.04,0.06-0.08,0.05-0.12c-0.01-0.08-0.03-0.05-0.07-0.12c0.01-0.02,0-0.04-0.02-0.05
							C115.72,311.89,115.7,311.9,115.7,311.92z M114.17,313.67c-0.06,0.02-0.11,0.02-0.17,0.04c-0.02,0.01-0.04,0.03-0.06,0.04
							c-0.24,0.18-0.47,0.38-0.71,0.56c-0.05,0.04-0.06,0.1-0.02,0.15c0.04,0.05,0.1,0.06,0.15,0.02c0.25-0.18,0.49-0.36,0.73-0.56
							c0.02-0.02,0.04-0.03,0.05-0.05c0.04-0.05,0.05-0.1,0.08-0.16c0.02-0.01,0.02-0.04,0-0.05
							C114.21,313.66,114.19,313.66,114.17,313.67z M111.84,314.95c-0.08-0.01-0.14-0.04-0.22-0.03c-0.28,0.03-0.53,0.18-0.79,0.28
							c-0.05,0.02-0.08,0.07-0.06,0.12c0.02,0.05,0.07,0.08,0.12,0.06c0.26-0.08,0.54-0.11,0.79-0.23c0.07-0.04,0.11-0.09,0.18-0.14
							c0.02,0,0.03-0.02,0.03-0.04C111.88,314.95,111.86,314.94,111.84,314.95z M119.94,300.31c0-0.04,0-0.09,0-0.13
							c-0.02-0.66-0.05-1.33-0.13-1.99c-0.03-0.01-0.08-0.02-0.12-0.03c-0.14-0.02-0.34-0.04-0.59-0.06
							c-0.18-0.01-0.38-0.05-0.61-0.06c-0.36-0.01-0.77,0.01-1.22,0.02c-1.55,0.05-3.57,0.17-5.44,0.27
							c-1.72,0.09-3.33,0.16-4.36,0.19c-0.46,0.01-0.8,0.05-0.99,0c-0.06-0.01-0.08-0.04-0.11-0.06c-0.02,0-0.03-0.02-0.03-0.04
							c0-0.02,0.02-0.03,0.04-0.03c0.03-0.01,0.06-0.04,0.11-0.05c0.1-0.02,0.26-0.01,0.45-0.02c0.52-0.03,1.32-0.08,2.28-0.13
							c0.99-0.06,2.15-0.14,3.34-0.19c1.13-0.05,2.29-0.09,3.34-0.11c0.99-0.02,1.88,0,2.58-0.03c0.2-0.01,0.39-0.03,0.56-0.04
							c0.22,0,0.41,0.01,0.56,0.03c0.23,0.02,0.37,0.06,0.43,0.11c0.06,0.04,0.08,0.09,0.09,0.14c0.08,0.55,0.14,1.11,0.16,1.66
							c0.04,0.83,0.03,1.67,0.01,2.5c-0.08,2.55-0.37,5.33-1.27,7.82c-0.61,1.68-1.5,3.24-2.78,4.51c-0.89,0.87-2.06,1.56-3.28,1.84
							c-0.76,0.17-1.54,0.2-2.28,0.01c-0.48-0.12-0.94-0.34-1.37-0.65c-0.04-0.02-0.05-0.07-0.02-0.11
							c0.02-0.04,0.07-0.05,0.11-0.02c0.43,0.26,0.89,0.42,1.35,0.52c0.71,0.14,1.43,0.12,2.14-0.05c1.16-0.28,2.28-0.93,3.12-1.77
							c1.25-1.24,2.1-2.75,2.69-4.39c0.88-2.46,1.16-5.2,1.24-7.71c0.02-0.61,0.02-1.22,0.01-1.83c-0.12,0.03-0.23,0.07-0.36,0.09
							c-0.32,0.04-0.65,0.02-0.97,0.02c-2.91,0.05-5.82,0.13-8.73,0.28c-1.25,0.06-2.49,0.13-3.74,0.22c-0.03,0-0.05-0.02-0.05-0.04
							c0-0.03,0.02-0.05,0.04-0.05c1.15-0.13,2.3-0.25,3.45-0.34c1.15-0.09,2.31-0.16,3.47-0.21c2.08-0.09,4.16-0.17,6.24-0.15
							c0.12,0,0.23-0.01,0.35,0.01C119.76,300.25,119.85,300.28,119.94,300.31z"/>
					</g>
					<path class="st19" d="M253.35,420.44c0,0,10.25,4.14,13.14,4.75c2.89,0.61,21.06,19.19,24.3,23.09c3.24,3.9,1.52,8.93-7.41,4.8
						c-9.63-4.46-32.15-14.53-35.01-17.54C244.29,431.23,245.88,429.33,253.35,420.44z"/>
					<g>
						<defs>
							<path id="SVGID_00000114031491514015887110000013759776007950357431_" d="M253.35,420.44c0,0,10.25,4.14,13.14,4.75
								c2.89,0.61,21.06,19.19,24.3,23.09c3.24,3.9,1.52,8.93-7.41,4.8c-9.63-4.46-32.15-14.53-35.01-17.54
								C244.29,431.23,245.88,429.33,253.35,420.44z"/>
						</defs>
						<clipPath id="SVGID_00000122707609593282579570000007799447619648450237_">
							<use xlink:href="#SVGID_00000114031491514015887110000013759776007950357431_"  style="overflow:visible;"/>
						</clipPath>
						
							<path style="clip-path:url(#SVGID_00000122707609593282579570000007799447619648450237_);fill-rule:evenodd;clip-rule:evenodd;fill:#B35918;" d="
							M239.73,372.68c-0.07-0.1-0.1-0.18-0.19-0.27c-0.64-0.59-1.51-0.89-2.34-1.19c-0.93-0.35-1.91-0.52-2.88-0.6
							c-0.17-0.02-0.33,0.1-0.35,0.28c-0.02,0.17,0.1,0.33,0.28,0.35c0.55,0.09,1.08,0.25,1.62,0.4c0.88,0.26,1.73,0.58,2.58,0.93
							c0.3,0.12,0.58,0.29,0.89,0.34c0.11,0.02,0.17-0.01,0.28-0.02c0.06,0.03,0.13,0.01,0.16-0.05
							C239.81,372.78,239.79,372.71,239.73,372.68z M238.33,375.23c-0.97-0.65-1.95-1.28-3.02-1.75c-0.71-0.31-1.46-0.53-2.23-0.71
							c-0.13-0.03-0.26,0.05-0.3,0.18c-0.03,0.13,0.05,0.26,0.18,0.3c0.92,0.23,1.8,0.58,2.66,0.96c0.87,0.38,1.74,0.77,2.58,1.23
							c0.06,0.03,0.13,0.02,0.17-0.04C238.41,375.34,238.39,375.27,238.33,375.23z M237.17,378.26c-1.06-0.71-2.08-1.5-3.23-2.07
							c-0.77-0.39-1.6-0.65-2.45-0.85c-0.15-0.04-0.3,0.05-0.34,0.2c-0.04,0.15,0.05,0.3,0.2,0.34c0.59,0.2,1.14,0.47,1.71,0.72
							c0.57,0.25,1.15,0.48,1.72,0.74c0.77,0.36,1.52,0.74,2.27,1.12c0.06,0.03,0.13,0.01,0.16-0.04
							C237.24,378.36,237.23,378.29,237.17,378.26z M281.34,434.32l-1.6,1.58c-0.46,0.54-0.9,1.09-1.31,1.66
							c-0.41,0.57-0.8,1.15-1.17,1.75c-0.05,0.08-0.03,0.19,0.05,0.24c0.08,0.05,0.19,0.03,0.24-0.05c0.38-0.58,0.79-1.15,1.21-1.7
							c0.42-0.55,0.86-1.08,1.33-1.6c0.39-0.45,0.83-0.87,1.22-1.33c0.09-0.11,0.24-0.19,0.26-0.32c0.01-0.06-0.01-0.03-0.03-0.08
							c0.04-0.05,0.03-0.13-0.02-0.17C281.45,434.26,281.38,434.27,281.34,434.32z M274.17,429.87c-0.14,0.06-0.24,0.07-0.36,0.16
							c-0.21,0.17-0.32,0.44-0.47,0.67c-0.5,0.76-0.93,1.55-1.3,2.4c-0.04,0.09,0,0.2,0.09,0.24c0.09,0.04,0.2,0,0.24-0.09
							c0.54-1.03,1.41-1.79,1.9-2.83c0.07-0.14,0.05-0.26,0.09-0.41c0.04-0.05,0.03-0.13-0.02-0.17
							C274.29,429.81,274.21,429.82,274.17,429.87z M278.49,432.93c-0.81,0.48-1.55,1.12-2.17,1.87c-0.62,0.75-1.11,1.6-1.54,2.4
							c-0.04,0.08-0.02,0.18,0.06,0.22c0.08,0.04,0.18,0.02,0.22-0.06c0.54-0.92,1.21-1.87,1.95-2.72c0.49-0.57,1.02-1.1,1.61-1.51
							c0.06-0.04,0.07-0.11,0.04-0.17C278.62,432.91,278.55,432.89,278.49,432.93z M272.11,427.89c-0.1,0.06-0.17,0.06-0.25,0.15
							c-0.05,0.06-0.06,0.14-0.09,0.21c-0.56,1.3-1.19,2.57-1.68,3.91c-0.04,0.11,0.01,0.24,0.13,0.28
							c0.11,0.04,0.24-0.01,0.28-0.12c0.53-1.32,1.21-2.55,1.8-3.83c0.03-0.07,0.09-0.14,0.1-0.22c0.01-0.12-0.04-0.17-0.06-0.29
							c0.03-0.06,0-0.13-0.06-0.16C272.21,427.8,272.14,427.83,272.11,427.89z M236.52,381.9c-0.97-0.74-1.92-1.52-2.95-2.18
							c-1.04-0.67-2.15-1.21-3.31-1.64c-0.13-0.05-0.27,0.01-0.32,0.14c-0.05,0.13,0.01,0.27,0.14,0.32
							c0.67,0.27,1.31,0.59,1.94,0.93c0.74,0.4,1.45,0.87,2.17,1.31c0.73,0.45,1.47,0.87,2.2,1.31c0.05,0.04,0.13,0.02,0.17-0.03
							C236.58,382.02,236.57,381.94,236.52,381.9z"/>
						
							<path style="clip-path:url(#SVGID_00000122707609593282579570000007799447619648450237_);fill-rule:evenodd;clip-rule:evenodd;fill:#FFFFFF;" d="
							M231.8,345.42c-3.95,4.81-5.14,11.77-6.24,17.7c-1.37,7.31-3.08,14.64-4.18,21.99c-0.55,3.68-0.95,7.37-1.44,11.06
							c-0.13,1.02-0.38,1.99-0.6,3c-0.03,0.12-0.12,0.93-0.26,1.01c-0.35,0.2-1.08-0.42-1.28-0.58c-1.15-0.91-2-2.49-2.66-3.77
							c-2.89-5.59-1.44-12.17-0.42-18.06c0.94-5.42,2.24-10.82,3.97-16.05c2.68-8.08,6.9-15.54,9.41-23.66"/>
						
							<path style="clip-path:url(#SVGID_00000122707609593282579570000007799447619648450237_);fill-rule:evenodd;clip-rule:evenodd;fill:#FFFFFF;" d="
							M244.53,429.59c2.68,3.6,6.5,5.58,10.22,7.91c2.93,1.84,5.81,3.15,8.94,4.67c5.18,2.52,10.63,5.07,15.85,7.52
							c3.18,1.5,6.56,2.59,9.84,3.85c0.79,0.31,1.58,0.62,2.38,0.9c0.15,0.05,0.7,0.15,0.74,0.3c0.44,1.53-2.23,2.94-3.27,3.14
							c-3.72,0.69-7.58-1.13-10.86-2.67c-5.8-2.73-11.39-5.95-17.08-8.92c-4.87-2.54-10.26-4.91-14.43-8.57
							c-2.5-2.2-4.45-4.87-6.05-7.77"/>
					</g>
					<path class="st19" d="M195.82,409.93c0,0,8.2,7.42,10.7,8.99c2.5,1.56,13.15,25.27,14.85,30.06c1.7,4.78-1.66,8.91-8.61,1.95
						c-7.5-7.51-25.16-24.72-26.81-28.53C183.59,416.93,185.74,415.69,195.82,409.93z"/>
					<g>
						<defs>
							<path id="SVGID_00000143611172620681221680000018192355995624693664_" d="M195.82,409.93c0,0,8.2,7.42,10.7,8.99
								c2.5,1.56,13.15,25.27,14.85,30.06c1.7,4.78-1.66,8.91-8.61,1.95c-7.5-7.51-25.16-24.72-26.81-28.53
								C183.59,416.93,185.74,415.69,195.82,409.93z"/>
						</defs>
						<clipPath id="SVGID_00000005965852501275121770000009887979980752209048_">
							<use xlink:href="#SVGID_00000143611172620681221680000018192355995624693664_"  style="overflow:visible;"/>
						</clipPath>
						
							<path style="clip-path:url(#SVGID_00000005965852501275121770000009887979980752209048_);fill-rule:evenodd;clip-rule:evenodd;fill:#B35918;" d="
							M211.68,424.66c-0.12,0-0.21-0.03-0.33-0.01c-0.85,0.17-1.6,0.71-2.34,1.19c-0.83,0.55-1.54,1.24-2.18,1.98
							c-0.12,0.13-0.11,0.33,0.02,0.45c0.13,0.12,0.33,0.11,0.45-0.02c0.39-0.39,0.83-0.73,1.27-1.07c0.72-0.56,1.49-1.06,2.26-1.55
							c0.27-0.17,0.58-0.3,0.8-0.52c0.08-0.08,0.09-0.15,0.15-0.24c0.06-0.03,0.08-0.1,0.05-0.16
							C211.81,424.66,211.74,424.63,211.68,424.66z M212.93,427.29c-1.1,0.4-2.18,0.83-3.19,1.42c-0.67,0.39-1.29,0.87-1.88,1.39
							c-0.1,0.09-0.12,0.24-0.03,0.35c0.09,0.1,0.24,0.12,0.35,0.03c0.73-0.61,1.53-1.11,2.33-1.59c0.82-0.49,1.65-0.95,2.51-1.37
							c0.06-0.03,0.09-0.1,0.06-0.16C213.06,427.3,212.99,427.27,212.93,427.29z M214.7,430.01c-1.2,0.44-2.44,0.81-3.57,1.4
							c-0.77,0.4-1.46,0.92-2.12,1.49c-0.12,0.1-0.14,0.27-0.04,0.39c0.1,0.12,0.27,0.14,0.4,0.04c0.51-0.36,1.05-0.65,1.59-0.96
							c0.54-0.32,1.06-0.66,1.61-0.96c0.74-0.41,1.49-0.79,2.24-1.19c0.06-0.03,0.09-0.1,0.06-0.16
							C214.83,430.01,214.76,429.98,214.7,430.01z M286.01,427.11l0.34,2.23c0.16,0.69,0.35,1.36,0.57,2.03
							c0.22,0.67,0.46,1.32,0.73,1.98c0.04,0.09,0.14,0.13,0.23,0.1c0.09-0.04,0.13-0.14,0.1-0.23c-0.24-0.65-0.47-1.31-0.67-1.97
							c-0.2-0.66-0.37-1.33-0.51-2.01c-0.14-0.58-0.22-1.18-0.36-1.77c-0.03-0.13-0.01-0.3-0.11-0.4c-0.04-0.04-0.03-0.01-0.09-0.02
							c-0.02-0.06-0.08-0.1-0.15-0.08C286.03,426.98,285.99,427.05,286.01,427.11z M278.2,430.31c-0.03,0.15-0.09,0.24-0.08,0.39
							c0.02,0.27,0.17,0.52,0.27,0.77c0.32,0.85,0.71,1.66,1.19,2.46c0.05,0.09,0.16,0.12,0.24,0.07c0.09-0.05,0.12-0.16,0.07-0.24
							c-0.52-1.04-0.63-2.19-1.17-3.2c-0.07-0.14-0.18-0.2-0.28-0.31c-0.02-0.06-0.08-0.1-0.15-0.08
							C278.22,430.18,278.18,430.24,278.2,430.31z M283.21,428.6c-0.09,0.94-0.01,1.91,0.24,2.86c0.24,0.94,0.65,1.83,1.04,2.66
							c0.04,0.08,0.13,0.12,0.22,0.08c0.08-0.04,0.12-0.13,0.08-0.22c-0.43-0.98-0.81-2.07-1.06-3.17c-0.17-0.73-0.3-1.47-0.28-2.19
							c0-0.07-0.05-0.12-0.11-0.13C283.27,428.48,283.22,428.53,283.21,428.6z M275.39,430.81c-0.01,0.12-0.05,0.17-0.02,0.29
							c0.02,0.08,0.08,0.13,0.12,0.2c0.72,1.22,1.38,2.47,2.18,3.65c0.06,0.1,0.2,0.13,0.3,0.06c0.1-0.07,0.13-0.2,0.06-0.3
							c-0.76-1.2-1.35-2.48-2.05-3.71c-0.04-0.07-0.06-0.15-0.12-0.21c-0.09-0.08-0.16-0.07-0.27-0.12
							c-0.03-0.06-0.11-0.08-0.17-0.04C275.38,430.68,275.36,430.75,275.39,430.81z M217.27,432.67c-1.17,0.35-2.35,0.67-3.5,1.11
							c-1.15,0.45-2.24,1.04-3.27,1.72c-0.12,0.08-0.15,0.23-0.07,0.35c0.08,0.12,0.23,0.15,0.35,0.07c0.61-0.39,1.25-0.72,1.9-1.03
							c0.76-0.36,1.55-0.66,2.33-0.99c0.79-0.33,1.56-0.68,2.35-1.01c0.06-0.02,0.1-0.09,0.07-0.15
							C217.4,432.69,217.33,432.65,217.27,432.67z"/>
						
							<path style="clip-path:url(#SVGID_00000005965852501275121770000009887979980752209048_);fill-rule:evenodd;clip-rule:evenodd;fill:#FFFFFF;" d="
							M184.95,415.1c1.58,6.03,6.52,11.06,10.67,15.44c5.12,5.4,10.06,11.08,15.36,16.29c2.65,2.61,5.41,5.1,8.11,7.65
							c0.75,0.71,1.39,1.47,2.08,2.24c0.08,0.1,0.68,0.65,0.67,0.8c-0.04,0.41-0.97,0.63-1.22,0.7c-1.41,0.4-3.19,0.16-4.62-0.05
							c-6.22-0.94-10.7-5.97-14.88-10.25c-3.85-3.94-7.45-8.16-10.67-12.63c-4.97-6.91-8.54-14.7-13.64-21.5"/>
						
							<path style="clip-path:url(#SVGID_00000005965852501275121770000009887979980752209048_);fill-rule:evenodd;clip-rule:evenodd;fill:#FFFFFF;" d="
							M260.59,454.15c4.49-0.05,8.33-1.99,12.4-3.64c3.21-1.3,5.96-2.86,9.02-4.5c5.08-2.72,10.34-5.64,15.38-8.42
							c3.07-1.69,5.95-3.8,8.89-5.71c0.71-0.46,1.43-0.92,2.13-1.4c0.13-0.09,0.53-0.48,0.68-0.43c1.5,0.55,1.07,3.54,0.62,4.49
							c-1.62,3.42-5.36,5.48-8.53,7.23c-5.61,3.1-11.5,5.73-17.24,8.6c-4.91,2.46-10,5.43-15.4,6.66c-3.25,0.73-6.55,0.75-9.84,0.35
							"/>
					</g>
					<path class="st24" d="M274.69,431.09l0.02-0.03l0.43-0.73l0.96-1.94c0.51-1.1,1.07-2.26,1.43-3.47
						c0.24-0.79,0.39-1.6,0.39-2.42c0-0.39-0.03-0.93-0.21-1.36c-0.11-0.25-0.28-0.46-0.55-0.54c-0.51-0.16-0.89,0.03-1.19,0.36
						c-0.49,0.55-0.74,1.45-0.88,2.04c-0.27,1.18-0.4,2.37-0.47,3.56C274.54,428.07,274.57,429.58,274.69,431.09z M274.91,432.1
						c0.6-0.11,1.2-0.23,1.79-0.39c0.66-0.18,1.31-0.4,1.95-0.68c0.8-0.36,1.66-0.84,2.37-1.46c0.47-0.41,0.87-0.88,1.14-1.42
						c0.19-0.38,0.24-0.88,0.1-1.25c-0.12-0.35-0.42-0.57-0.92-0.44c-0.28,0.07-0.56,0.19-0.83,0.33c-0.41,0.21-0.8,0.48-1.17,0.72
						c-0.48,0.32-0.94,0.65-1.38,1.01c-0.44,0.36-0.85,0.74-1.22,1.18c-0.39,0.44-0.75,1.04-1.18,1.51
						c-0.21,0.23-0.43,0.43-0.67,0.59c-0.02,0.01-0.03,0.02-0.05,0.03L274.91,432.1z M274.59,432.1c-0.03-0.02-0.06-0.05-0.06-0.09
						l-0.04-0.29l0-0.01c-0.02-0.04-0.05-0.11-0.03-0.21c-0.18-1.34-0.3-2.69-0.3-4.04c0-1.52,0.17-3.04,0.52-4.55
						c0.15-0.64,0.44-1.64,0.98-2.23c0.41-0.45,0.94-0.69,1.64-0.48c0.4,0.12,0.65,0.41,0.82,0.78c0.21,0.48,0.25,1.09,0.26,1.53
						c0.01,0.86-0.13,1.72-0.37,2.56c-0.35,1.23-0.89,2.43-1.4,3.56l-0.51,1.05c0.09-0.11,0.17-0.21,0.26-0.31
						c0.4-0.44,0.84-0.84,1.31-1.21c0.46-0.36,0.94-0.69,1.44-1.01c0.39-0.25,0.8-0.51,1.23-0.72c0.3-0.15,0.6-0.27,0.92-0.34
						c0.6-0.15,1,0.06,1.23,0.4c0.32,0.48,0.3,1.27,0.01,1.84c-0.29,0.57-0.73,1.08-1.23,1.52c-0.74,0.65-1.62,1.17-2.44,1.55
						c-0.65,0.31-1.31,0.55-1.99,0.74c-0.59,0.17-1.19,0.31-1.79,0.43l0.24,0.88l0,2.41c0.01,0.06-0.03,0.12-0.09,0.14
						c-0.06,0.01-0.12-0.03-0.14-0.09c-0.11-0.32-0.18-0.64-0.22-0.98c-0.05-0.47-0.01-0.95-0.06-1.43l-0.11-0.85
						c-0.31,0.06-0.62,0.11-0.93,0.17c-1.03,0.15-2.04,0.26-3.03,0.49c-0.64,0.15-1.28,0.34-1.89,0.66
						c-0.07,0.04-0.17,0.02-0.21-0.06c-0.04-0.07-0.02-0.17,0.06-0.21c0.62-0.39,1.26-0.66,1.93-0.84c0.99-0.28,2.02-0.38,3.06-0.55
						c0.32-0.05,0.63-0.09,0.95-0.15L274.59,432.1z"/>
					<path class="st24" d="M212.39,427.36c0.49-1.31,1.07-2.59,1.56-3.9c0.31-0.87,0.69-2.05,0.76-3.17
						c0.04-0.72-0.04-1.41-0.38-1.97c-0.16-0.26-0.34-0.25-0.5-0.1c-0.42,0.37-0.76,1.17-0.87,1.47c-0.23,0.61-0.37,1.23-0.48,1.87
						c-0.18,0.98-0.27,1.98-0.37,2.96c-0.05,0.48-0.13,0.99-0.14,1.49c-0.01,0.32,0.02,0.64,0.1,0.94c0.06,0.2,0.15,0.34,0.27,0.44
						L212.39,427.36z M213.07,427.64c0.36,0.04,0.76,0.02,1.12,0.06c0.89,0.1,1.79,0.15,2.67,0.09c0.87-0.06,1.74-0.23,2.58-0.54
						c0.43-0.16,0.94-0.37,1.33-0.69c0.23-0.19,0.42-0.43,0.51-0.72c0.11-0.37-0.07-0.57-0.35-0.67c-0.54-0.21-1.37-0.13-1.77-0.07
						l-0.8,0.18c-0.83,0.21-1.6,0.53-2.36,0.88C215.01,426.61,214.05,427.13,213.07,427.64z M211.91,427.61
						c-0.12-0.13-0.22-0.3-0.29-0.52c-0.11-0.34-0.16-0.7-0.18-1.07c-0.02-0.52,0.02-1.05,0.03-1.54c0.02-0.85,0.02-1.7,0.12-2.55
						c0.1-0.87,0.31-1.72,0.64-2.53c0.18-0.45,0.83-1.7,1.48-1.96c0.4-0.16,0.84-0.11,1.21,0.53c0.39,0.67,0.49,1.51,0.42,2.37
						c-0.1,1.18-0.52,2.42-0.87,3.32c-0.42,1.11-0.9,2.19-1.34,3.3c0.86-0.48,1.7-0.98,2.59-1.4c0.79-0.38,1.61-0.69,2.48-0.9
						l0.86-0.17c0.47-0.07,1.44-0.12,2.08,0.13c0.56,0.22,0.91,0.64,0.68,1.39c-0.12,0.4-0.38,0.73-0.71,0.99
						c-0.44,0.35-1.02,0.59-1.5,0.76c-0.89,0.32-1.81,0.48-2.73,0.53c-0.91,0.05-1.84,0-2.76-0.11c-0.46-0.06-0.97-0.04-1.41-0.12
						c-0.19,0.51-0.35,1.03-0.49,1.56c-0.21,0.78-0.35,1.6-0.45,2.42c-0.1,0.83-0.16,1.66-0.2,2.47c-0.01,0.16-0.14,0.28-0.29,0.27
						c-0.16-0.01-0.28-0.14-0.27-0.3c0.04-0.82,0.11-1.67,0.22-2.51c0.11-0.85,0.26-1.68,0.47-2.49c0.12-0.46,0.27-0.92,0.43-1.38
						c-0.86,0.34-1.77,0.53-2.63,0.85c-0.41,0.15-0.81,0.34-1.2,0.6c-0.05,0.04-0.13,0.03-0.17-0.03c-0.04-0.05-0.03-0.13,0.03-0.17
						c0.38-0.29,0.79-0.51,1.21-0.7C210.2,428.25,211.08,428.01,211.91,427.61z"/>
					<path class="st25" d="M137.07,247.88c0,0-8.63,12.52-4.38,14.91c4.25,2.38,56.54,8.15,70.68,7.46
						c1.67-0.08,4.28-0.23,4.28-0.23s3.32,2.18,6.09,1.86c4.99-0.58,6.35-2.98,6.35-2.98s1.17-0.22,3.64,0.33
						c5.41,1.21,10.44,3.54,12.51,4.5c0.91,0.42,3.43-1.37-0.39-3.93c-1.13-0.76-7.08-3.79-10.81-5.43
						c-5.96-2.63-9.98-1.17-15.39,0.07C204.25,265.67,137.07,247.88,137.07,247.88z"/>
					<path class="st12" d="M109.85,287.52c0,0,7.68-6.97,8.64-30.07c0.97-23.1-2.27-39.5,1.73-52.65
						c3.43-11.27,5.08-17.41,15.92-16.35c9.17,0.89,15,13.05,26.15,24.55c9.5,9.8,5.81,20.1,0.09,27.53
						c-7.03,9.12-6.3,43.15-1.02,47.84"/>
					<g>
						<defs>
							<path id="SVGID_00000178193169796075741950000015215473369174891404_" d="M109.85,287.52c0,0,3.02-13.7,3.98-36.81
								c0.97-23.1-2.07-26.09,1.92-39.25c3.43-11.27,9.54-24.07,20.38-23.02c9.17,0.89,16.74,11.95,27.9,23.46
								c9.5,9.8,4.07,21.19-1.66,28.62c-7.03,9.12-6.3,43.15-1.02,47.84"/>
						</defs>
						<clipPath id="SVGID_00000098219271672919372630000008761358014457362336_">
							<use xlink:href="#SVGID_00000178193169796075741950000015215473369174891404_"  style="overflow:visible;"/>
						</clipPath>
					</g>
					<path class="st15" d="M136.77,171.16c-0.89-2.54-1.42-5.44-1.35-8.71c0,0-6.45-24.76,11.33-24.7
						c17.78,0.06,24.19,11.74,21.99,21.77c-0.54,2.46-1.87,3.77-1.72,7.37c0.12,2.84,1.69,4.93,1.63,5.75
						c-0.05,0.76-3.72,1.69-4.37,1.55c-0.13-0.03-1.74,3.24-2.12,4.24c-0.52,1.37-0.8,2.43-1.17,3.13
						c-0.85,1.61-2.74,5.48-10.97,1.93c-0.34,4.18-1.58,11.57-0.05,15.06c0.08,0.19-18.04-0.78-20.23-7.02
						C129.75,191.53,136.87,178.16,136.77,171.16z"/>
					<g>
						<defs>
							<path id="SVGID_00000025428459756705830290000008649006146223059897_" d="M136.77,171.16c-0.89-2.54-1.42-5.44-1.35-8.71
								c0,0-6.45-24.76,11.33-24.7c17.78,0.06,24.19,11.74,21.99,21.77c-0.54,2.46-1.87,3.77-1.72,7.37
								c0.12,2.84,1.69,4.93,1.63,5.75c-0.05,0.76-3.72,1.69-4.37,1.55c-0.13-0.03-1.74,3.24-2.12,4.24
								c-0.52,1.37-0.8,2.43-1.17,3.13c-0.85,1.61-2.74,5.48-10.97,1.93c-0.34,4.18-1.58,11.57-0.05,15.06
								c0.08,0.19-18.04-0.78-20.23-7.02C129.75,191.53,136.87,178.16,136.77,171.16z"/>
						</defs>
						<clipPath id="SVGID_00000044177581015076929460000016523604130767760803_">
							<use xlink:href="#SVGID_00000025428459756705830290000008649006146223059897_"  style="overflow:visible;"/>
						</clipPath>
						
							<path style="clip-path:url(#SVGID_00000044177581015076929460000016523604130767760803_);fill-rule:evenodd;clip-rule:evenodd;fill:#242424;" d="
							M158.19,174.74c0.67,0.76,1.49,1.44,2.43,1.86c0.96,0.42,2.02,0.55,3.05,0.47c0.16-0.01,0.28-0.14,0.27-0.3
							c-0.01-0.16-0.14-0.28-0.3-0.27c-0.94,0.01-1.86-0.25-2.74-0.6c-0.9-0.35-1.77-0.79-2.49-1.4c-0.07-0.06-0.17-0.06-0.24,0
							C158.12,174.57,158.12,174.67,158.19,174.74z"/>
					</g>
					<path class="st15" d="M141.91,256.2c0,0,2.86-21.46,3.41-32.93c0.73-15.22-4.08-19.85-10.06-20.65
						c-5.98-0.8-12.13,6.18-11.21,35.76c0.87,28.12,3.18,31.23,7.62,33.23c4.45,2,64.23,2.96,78.25,1.03
						c1.65-0.23,4.24-0.6,4.24-0.6s3.5,1.88,6.23,1.32c4.92-1.01,6.06-3.53,6.06-3.53s1.15-0.32,3.65,0.01
						c5.49,0.73,10.71,2.61,12.86,3.38c0.95,0.34,3.29-1.66-0.73-3.88c-1.2-0.66-7.38-3.15-11.25-4.46
						c-6.17-2.09-10.04-0.28-15.32,1.43C210.4,268.01,141.91,256.2,141.91,256.2z"/>
					<g>
						<defs>
							<path id="SVGID_00000124153345115682948910000001984776983933027973_" d="M141.91,256.2c0,0,2.86-21.46,3.41-32.93
								c0.73-15.22-4.08-19.85-10.06-20.65c-5.98-0.8-12.13,6.18-11.21,35.76c0.87,28.12,3.18,31.23,7.62,33.23
								c4.45,2,64.23,2.96,78.25,1.03c1.65-0.23,4.24-0.6,4.24-0.6s3.5,1.88,6.23,1.32c4.92-1.01,6.06-3.53,6.06-3.53
								s1.15-0.32,3.65,0.01c5.49,0.73,10.71,2.61,12.86,3.38c0.95,0.34,3.29-1.66-0.73-3.88c-1.2-0.66-7.38-3.15-11.25-4.46
								c-6.17-2.09-10.04-0.28-15.32,1.43C210.4,268.01,141.91,256.2,141.91,256.2z"/>
						</defs>
						<clipPath id="SVGID_00000103980773833357189250000003580629457406155149_">
							<use xlink:href="#SVGID_00000124153345115682948910000001984776983933027973_"  style="overflow:visible;"/>
						</clipPath>
						
							<path style="clip-path:url(#SVGID_00000103980773833357189250000003580629457406155149_);fill-rule:evenodd;clip-rule:evenodd;fill:#FFFFFF;" d="
							M209.68,274.34c0.52-2.92-0.28-5.74-0.08-8.63c0.02-0.29,0.91-0.54,1.1-0.6c0.8-0.27,1.92-0.85,2.29,0.17
							c1.15,3.27,0.16,6.94,0.23,10.28"/>
					</g>
					<path class="st2" d="M169.17,152.6c0,0-9.95-0.49-14.05,2.32c-7.01,4.81-14.72,3.48-15.08,4.62c-0.97,3.07,0.51,4.7-0.19,6.85
						c-2.81,8.63,2.71,21.21,1.29,27.19c-1.94,8.2-8.71,7.59-11.44,11.22c-4.54,6.04-6.02,14.4-14.5,16.24
						c-2.1,0.46-4.39,0.38-6.3-0.6c-1.63-0.84-2.88-2.28-3.84-3.84c-4.82-7.81-4.26-19.87-0.21-27.88
						c3.34-6.61,8.68-11.97,11.78-18.73c2.51-5.47,5.22-10.45,7.4-15.96c8.5-21.43,24.91-19.92,31.52-18.87
						C165.49,136.73,169.89,150.79,169.17,152.6z"/>
					<path class="st15" d="M141.34,162.26c-0.08-1.7-1.41-3.54-2.84-4.38c-1-0.59-2.37-0.57-3.18,0.34
						c-0.83,0.94-0.58,2.27-0.21,3.35c0.89,2.64,3.12,4.39,5.91,4.54"/>
					<path class="st28" d="M139.11,161.38l-1.21-1.62c-0.04-0.04-0.05-0.11,0-0.16c0.04-0.05,0.11-0.05,0.16-0.01l1.63,1.99
						c0.17,0.27,0.32,0.58,0.44,0.89c0.12,0.32,0.19,0.66,0.2,1c0,0.12-0.1,0.22-0.22,0.22c-0.12,0-0.22-0.1-0.22-0.22
						c0.01-0.29-0.04-0.59-0.13-0.87c-0.06-0.2-0.14-0.4-0.23-0.59c-0.33-0.25-0.68-0.44-1.05-0.59c-0.61-0.25-1.27-0.4-1.96-0.42
						c-0.05,0-0.09-0.04-0.09-0.09c0-0.05,0.04-0.09,0.09-0.09c0.6-0.03,1.19,0,1.75,0.17
						C138.56,161.08,138.84,161.21,139.11,161.38z"/>
					<path class="st28" d="M148.27,181.84l-5.87-4.42c-0.06-0.04-0.15-0.03-0.19,0.03c-0.04,0.06-0.03,0.15,0.03,0.19
						c1.18,0.86,2.3,1.82,3.47,2.71c0.79,0.6,1.6,1.15,2.43,1.68c0.05,0.04,0.13,0.02,0.17-0.03
						C148.34,181.95,148.32,181.88,148.27,181.84z"/>
					<path class="st29" d="M155.91,138.12c-0.35,0.42-0.74,0.81-1.15,1.18c-0.62,0.56-1.29,1.06-1.94,1.54
						c-1.51,1.19-3.09,2.19-4.76,3.04c-1.1,0.56-2.24,1.07-3.47,1.42c-0.12,0.03-0.19,0.15-0.16,0.27c0.03,0.12,0.15,0.19,0.27,0.16
						c1.62-0.37,3.13-0.91,4.53-1.68c1.39-0.76,2.67-1.74,3.92-2.79c0.62-0.54,1.25-1.11,1.84-1.72c0.39-0.41,0.76-0.83,1.09-1.28
						c0.04-0.05,0.03-0.13-0.02-0.17C156.02,138.06,155.95,138.07,155.91,138.12z M161.04,142.22c-0.32,0.62-0.79,1.16-1.33,1.65
						c-0.82,0.72-1.8,1.3-2.7,1.77c-1.91,1.02-3.86,1.91-5.9,2.42c-1.35,0.34-2.75,0.52-4.22,0.41c-0.03,0-0.06,0.02-0.06,0.05
						c0,0.03,0.02,0.06,0.05,0.06c1.87,0.22,3.64,0.01,5.35-0.49c1.7-0.5,3.33-1.29,4.94-2.14c0.91-0.49,1.9-1.11,2.72-1.87
						c0.56-0.52,1.04-1.1,1.36-1.75c0.03-0.06,0.01-0.13-0.05-0.16C161.14,142.13,161.07,142.16,161.04,142.22z M131.86,150.51
						c-1.45,0.68-2.67,1.6-3.7,2.7c-1.54,1.66-2.66,3.71-3.64,5.82c-0.68,1.51-1.26,3.05-1.78,4.6c-1.22,3.6-2.15,7.29-3.5,10.87
						c-1.26,3.36-2.93,6.39-4.79,9.28c-2.83,4.38-6.12,8.43-9.26,12.78c-0.07,0.1-0.05,0.23,0.05,0.3c0.1,0.07,0.23,0.05,0.3-0.05
						c3.2-4.32,6.57-8.33,9.44-12.7c1.91-2.91,3.6-5.98,4.89-9.39c1.36-3.58,2.3-7.27,3.53-10.88c0.52-1.53,1.09-3.04,1.77-4.53
						c0.76-1.72,1.65-3.38,2.74-4.86c1.09-1.48,2.38-2.79,4.07-3.74c0.06-0.03,0.08-0.1,0.05-0.16
						C131.99,150.5,131.91,150.48,131.86,150.51z M136.02,162.75c-1.78,1.73-3.01,3.94-3.89,6.36c-1.28,3.54-1.81,7.49-2.56,10.87
						c-0.85,3.88-1.87,7.63-3.3,11.19c-1.43,3.56-3.25,6.95-5.72,10.12c-0.07,0.09-0.05,0.22,0.04,0.29
						c0.09,0.07,0.22,0.05,0.29-0.04c2.51-3.19,4.37-6.6,5.83-10.2c1.45-3.58,2.5-7.35,3.37-11.25c0.75-3.36,1.35-7.27,2.56-10.81
						c0.81-2.38,1.88-4.6,3.55-6.37c0.05-0.05,0.05-0.12,0-0.17C136.14,162.7,136.06,162.7,136.02,162.75z M133.32,157.16
						c-2.07,1.61-3.54,3.65-4.64,5.95c-2.48,5.2-3.03,11.63-4.99,16.81c-0.81,2.13-1.76,4.18-2.81,6.17c-1.58,3-3.4,5.87-5.28,8.73
						c-1.41,2.14-2.9,4.26-4.22,6.46c-0.89,1.48-1.71,3-2.39,4.59c-0.8,1.89-1.38,3.79-1.77,5.74c-0.38,1.94-0.57,3.92-0.7,5.94
						c-0.01,0.13,0.09,0.25,0.22,0.26c0.13,0.01,0.24-0.09,0.26-0.22c0.2-2,0.49-3.93,0.9-5.84c0.41-1.9,0.95-3.77,1.73-5.61
						c0.67-1.57,1.47-3.06,2.34-4.51c1.32-2.2,2.79-4.31,4.2-6.44c1.89-2.88,3.71-5.77,5.3-8.79c1.06-2.02,2.02-4.09,2.82-6.25
						c1.93-5.18,2.55-11.55,4.9-16.8c1.01-2.27,2.33-4.34,4.28-5.99c0.05-0.04,0.06-0.12,0.02-0.17
						C133.45,157.13,133.38,157.12,133.32,157.16z"/>
					<path class="st30" d="M211.25,330.16c0.16,0.15-0.01,0.14,0.21,0.19c0.06,0.01,0.12-0.04,0.18-0.06
						c0.86-0.34,1.62-0.93,2.28-1.63c1.07-1.11,1.86-2.53,2.47-3.81c0.05-0.1,0.01-0.22-0.09-0.28c-0.1-0.05-0.22-0.01-0.28,0.09
						c-0.56,0.99-1.29,2.04-2.13,2.96c-0.73,0.8-1.58,1.45-2.51,1.93c-0.07,0.04-0.17,0.05-0.21,0.12c-0.11,0.18,0,0.05-0.01,0.26
						c-0.06,0.02-0.09,0.09-0.07,0.15C211.12,330.16,211.19,330.19,211.25,330.16z M211.43,331.04c-0.02,0.11-0.06,0.06-0.02,0.16
						c0.02,0.06,0.11,0.09,0.16,0.13c0.72,0.54,1.56,0.84,2.43,0.98c1.43,0.23,2.97-0.01,4.27-0.51c0.16-0.06,0.23-0.24,0.17-0.39
						c-0.06-0.16-0.24-0.23-0.39-0.17c-1,0.39-2.16,0.62-3.3,0.57c-1-0.04-1.98-0.31-2.81-0.88c-0.06-0.04-0.11-0.12-0.19-0.14
						c-0.1-0.02-0.07,0.02-0.17,0.05c-0.05-0.04-0.13-0.03-0.17,0.02C211.37,330.92,211.38,331,211.43,331.04z"/>
					<path class="st5" d="M161.46,160.99c1.37,0.35,2.18,0.7,1.74,2.43c-0.44,1.73-1.91,2.86-3.27,2.51
						c-1.37-0.35-2.31-2.09-1.68-3.77C158.55,161.35,160.09,160.64,161.46,160.99z"/>
					<g>
						<defs>
							<path id="SVGID_00000083071900342294211320000018081148678379785641_" d="M161.51,159.65c1.37,0.35,2.12,2.03,1.68,3.77
								c-0.44,1.73-1.91,2.86-3.27,2.51c-1.37-0.35-2.12-2.03-1.68-3.77C158.68,160.43,160.15,159.31,161.51,159.65z"/>
						</defs>
						<clipPath id="SVGID_00000030475011530271325980000002096651060115328160_">
							<use xlink:href="#SVGID_00000083071900342294211320000018081148678379785641_"  style="overflow:visible;"/>
						</clipPath>
						
							<path style="clip-path:url(#SVGID_00000030475011530271325980000002096651060115328160_);fill-rule:evenodd;clip-rule:evenodd;fill:#5E9CE9;" d="
							M162.28,161.25c0.96,0.24,1.71,1.42,1.36,2.8c-0.35,1.38-1.41,2.31-2.37,2.07c-0.96-0.24-1.45-1.56-1.1-2.95
							C160.53,161.79,161.33,161.01,162.28,161.25z"/>
						
							<path style="clip-path:url(#SVGID_00000030475011530271325980000002096651060115328160_);fill-rule:evenodd;clip-rule:evenodd;fill:#242424;" d="
							M163.13,162.1c0.9,0.23,1.43,1.22,1.18,2.2c-0.25,0.99-1.19,1.6-2.09,1.37c-0.9-0.23-1.43-1.22-1.18-2.2
							C161.3,162.48,162.23,161.87,163.13,162.1z"/>
					</g>
					<path class="st29" d="M165.27,156.27c-0.27-0.19-0.52-0.36-0.83-0.47c-0.67-0.23-1.42-0.21-2.11-0.24
						c-1.07-0.01-2.06,0.02-2.99,0.33c-0.62,0.21-1.2,0.54-1.78,0.98c-0.13,0.08-0.17,0.24-0.09,0.37c0.08,0.13,0.24,0.17,0.37,0.09
						c0.74-0.36,1.45-0.51,2.18-0.62c0.73-0.11,1.48-0.16,2.29-0.14l2.81,0.11c0.12,0.04,0.24-0.02,0.28-0.13
						C165.44,156.43,165.38,156.31,165.27,156.27z"/>
					<path class="st33" d="M152.14,169.29c0.02,0.59,0.27,1.32,0.68,1.79c0.19,0.22,0.39,0.43,0.64,0.58
						c0.21,0.12,0.44,0.22,0.68,0.26c0.87,0.14,1.99-0.26,2.56-0.95c0.34-0.41,0.53-0.96,0.57-1.48c0.12-1.52-0.58-2.46-2.02-2.79
						c-0.99-0.23-1.91,0.14-2.57,0.88C152.27,168.03,152.12,168.71,152.14,169.29z"/>
					<path class="st2" d="M156.33,135.51c2.04,0.31,3.85,1.31,5.55,2.44c3.22,2.16,6.66,4.86,7.21,8.95
						c0.2,1.47,0.89,4.48-0.04,5.81"/>
				</g>
				<g>
					<path class="st6" d="M138.84,394.69l42.58,46.82l-5.82,0.39l-36.73-33.88c-0.59,4.27-4.7,33.58-4.7,33.58l-4.98,0.06
						l-2.23-33.65l-36.74,33.89l-5.82-0.39l42.34-46.56V345.6h12.11V394.69z"/>
					<path class="st6" d="M97.56,284.04c0,0,60.14-1.31,74.3,0.07c4.47,0.44,4.5,2.36,10.68,8.22c3.95,3.75,11.22-0.35,6.76-7.5
						c-4.46-7.15-6.97-11.01-14.32-11.09c-7.35-0.08-78.38-1.08-78.38-1.08"/>
					<path class="st13" d="M85.36,330.25c-3.79-0.49-4.87-3.18-5.2-15.82c-0.48-18.36-0.29-34.11-11.31-61.47
						c-11.02-27.36-19.28-47.07-15.5-52.41c3.79-5.34,17.65-7.03,31.46,19.81c0,0,16.91,31.76,15.56,67.4
						c-1.19,31.32,0.85,42.06-7.35,42.49c24.5,0.02,74.68,0.07,89.82,0.02c4.79-0.01,3.01,8.17-0.18,14.17
						c-3.19,6-18.94,5.91-44.29,5.17c-25.92-0.75-51.34,1.64-55.87-5.22c-6.18-9.36-3.52-14.15,1.59-14.15L85.36,330.25z"/>
					<path class="st13" d="M179.21,440.7c3.96,0,7.17,3.21,7.17,7.17c0,3.96-3.21,7.17-7.17,7.17c-3.96,0-7.17-3.21-7.17-7.17
						C172.03,443.91,175.25,440.7,179.21,440.7z M87.02,440.7c3.96,0,7.17,3.21,7.17,7.17c0,3.96-3.21,7.17-7.17,7.17
						s-7.17-3.21-7.17-7.17C79.85,443.91,83.06,440.7,87.02,440.7z M131.8,440.7c3.96,0,7.17,3.21,7.17,7.17
						c0,3.96-3.21,7.17-7.17,7.17c-3.96,0-7.17-3.21-7.17-7.17C124.63,443.91,127.84,440.7,131.8,440.7z"/>
				</g>
			</g>
			<path class="st33" d="M158.05,162.77c0,0,0.63-3.42,3.44-3.64c2.64-0.21,1.85,2.91,1.85,2.91S160.91,159.87,158.05,162.77z"/>
		</g>
		<path class="st28" d="M162.82,162.04c-0.19-0.07-0.34-0.15-0.53-0.22c-0.16-0.06-0.33-0.12-0.5-0.16
			c-0.17-0.04-0.35-0.08-0.52-0.1c-0.55-0.07-1.16,0.05-1.72,0.3c-0.44,0.2-0.83,0.48-1.15,0.79c-0.08,0.07-0.14,0.14-0.24,0.21
			c-0.05,0.04-0.16,0.19-0.19,0.18c-0.02-0.01,0.02-0.23,0.02-0.23s0.12-0.23,0.19-0.32c0.3-0.38,0.71-0.71,1.19-0.94
			c0.62-0.29,1.32-0.44,1.94-0.36c0.19,0.02,0.39,0.06,0.58,0.11c0.19,0.05,0.38,0.11,0.56,0.18c0.21,0.08,0.41,0.19,0.62,0.26
			c0.13,0.04,0.25,0.07,0.39,0.08c0.11,0,0.22-0.01,0.33-0.04c0.12-0.03,0.23-0.07,0.34-0.11l0.52-0.27c0.1-0.06,0.2-0.13,0.3-0.21
			c0.1-0.08,0.18-0.16,0.27-0.25c0.03-0.04,0.09-0.05,0.14-0.02c0.04,0.03,0.05,0.09,0.02,0.13c-0.07,0.11-0.14,0.22-0.22,0.32
			c-0.08,0.11-0.18,0.2-0.28,0.29c-0.09,0.07-0.18,0.13-0.28,0.19c-0.1,0.06-0.2,0.11-0.31,0.15c-0.15,0.06-0.31,0.12-0.48,0.15
			c-0.05,0.01-0.11,0.02-0.16,0.03c0.21,0.14,0.43,0.26,0.67,0.34c0.28,0.09,0.57,0.15,0.92,0.09c0.07-0.02,0.13,0.02,0.16,0.08
			c0.02,0.06-0.02,0.12-0.08,0.14c-0.5,0.19-0.97,0.18-1.41,0.02c-0.37-0.14-0.71-0.38-1-0.69c-0.01-0.02-0.03-0.03-0.04-0.05
			C162.84,162.08,162.82,162.05,162.82,162.04z"/>
		<path class="st5" d="M220.74,297.65h-14.12v-19.24h218.91v19.24h-12.95l-8.23,157.13l-6.58,0.05c0,0-4.34-104.15-6.62-157.18
			H242.16l-8.23,157.13l-6.58,0.05C227.35,454.83,223.02,350.68,220.74,297.65z"/>
	</g>
</g>
</svg>
