<?xml version="1.0" standalone="no"?><svg xmlns="http://www.w3.org/2000/svg" viewBox="0 0 1440 320"><path fill="#0099ff" fill-opacity="0.2" d="M0,32L26.7,58.7C53.3,85,107,139,160,181.3C213.3,224,267,256,320,266.7C373.3,277,427,267,480,245.3C533.3,224,587,192,640,197.3C693.3,203,747,245,800,234.7C853.3,224,907,160,960,133.3C1013.3,107,1067,117,1120,117.3C1173.3,117,1227,107,1280,122.7C1333.3,139,1387,181,1413,202.7L1440,224L1440,320L1413.3,320C1386.7,320,1333,320,1280,320C1226.7,320,1173,320,1120,320C1066.7,320,1013,320,960,320C906.7,320,853,320,800,320C746.7,320,693,320,640,320C586.7,320,533,320,480,320C426.7,320,373,320,320,320C266.7,320,213,320,160,320C106.7,320,53,320,27,320L0,320Z"></path></svg>